name C:\Users\r0593348\3dpredictsim\Results\Batchsim_tmt_linear\Pog_s1_tmt_bCst_d00_k1000_ig24.mot
datacolumns 128
datarows 4
range 1.07540243 1.10766450
endheader
time	pelvis_tilt	pelvis_list	pelvis_rotation	pelvis_tx	pelvis_ty	pelvis_tz	hip_flexion_l	hip_adduction_l	hip_rotation_l	hip_flexion_r	hip_adduction_r	hip_rotation_r	knee_angle_l	knee_angle_r	ankle_angle_l	ankle_angle_r	subtalar_angle_l	subtalar_angle_r	tmt_angle_l	tmt_angle_r	mtp_angle_l	mtp_angle_r	lumbar_extension	lumbar_bending	lumbar_rotation	arm_flex_l	arm_add_l	arm_rot_l	arm_flex_r	arm_add_r	arm_rot_r	elbow_flex_l	elbow_flex_r	pro_sup_l	pro_sup_r	glut_med1_l/activation	glut_med2_l/activation	glut_med3_l/activation	glut_min1_l/activation	glut_min2_l/activation	glut_min3_l/activation	semimem_l/activation	semiten_l/activation	bifemlh_l/activation	bifemsh_l/activation	sar_l/activation	add_long_l/activation	add_brev_l/activation	add_mag1_l/activation	add_mag2_l/activation	add_mag3_l/activation	tfl_l/activation	pect_l/activation	grac_l/activation	glut_max1_l/activation	glut_max2_l/activation	glut_max3_l/activation	iliacus_l/activation	psoas_l/activation	quad_fem_l/activation	gem_l/activation	peri_l/activation	rect_fem_l/activation	vas_med_l/activation	vas_int_l/activation	vas_lat_l/activation	med_gas_l/activation	lat_gas_l/activation	soleus_l/activation	tib_post_l/activation	flex_dig_l/activation	flex_hal_l/activation	tib_ant_l/activation	per_brev_l/activation	per_long_l/activation	per_tert_l/activation	ext_dig_l/activation	ext_hal_l/activation	ercspn_l/activation	intobl_l/activation	extobl_l/activation	glut_med1_r/activation	glut_med2_r/activation	glut_med3_r/activation	glut_min1_r/activation	glut_min2_r/activation	glut_min3_r/activation	semimem_r/activation	semiten_r/activation	bifemlh_r/activation	bifemsh_r/activation	sar_r/activation	add_long_r/activation	add_brev_r/activation	add_mag1_r/activation	add_mag2_r/activation	add_mag3_r/activation	tfl_r/activation	pect_r/activation	grac_r/activation	glut_max1_r/activation	glut_max2_r/activation	glut_max3_r/activation	iliacus_r/activation	psoas_r/activation	quad_fem_r/activation	gem_r/activation	peri_r/activation	rect_fem_r/activation	vas_med_r/activation	vas_int_r/activation	vas_lat_r/activation	med_gas_r/activation	lat_gas_r/activation	soleus_r/activation	tib_post_r/activation	flex_dig_r/activation	flex_hal_r/activation	tib_ant_r/activation	per_brev_r/activation	per_long_r/activation	per_tert_r/activation	ext_dig_r/activation	ext_hal_r/activation	ercspn_r/activation	intobl_r/activation	extobl_r/activation	
          1.07540243	         -2.92968733	         -2.20169846	          5.32220492	          1.34425303	          0.85848165	         -0.00237102	        -18.13114409	         -1.62223408	          7.14081627	         31.65865943	          3.08431731	         -1.85885008	         -6.00098603	        -14.61456708	          1.42623883	          7.42410289	          9.60014909	         -3.08979598	          1.02324593	          0.03543323	         20.67900845	         -0.12646870	         -1.99622185	          0.55269052	         -1.93184320	          8.10516843	        -13.45203127	         17.72095276	         -8.25042846	        -13.51345945	          8.18901504	         34.21702003	         13.33661318	         86.51662706	         86.51662706	          0.32787651	          0.11401677	          0.08199158	          0.33332428	          0.22141797	          0.11401713	          0.05000038	          0.05000006	          0.05000004	          0.07630862	          0.11401931	          0.05000004	          0.05000004	          0.05000005	          0.05000014	          0.05000011	          0.32877664	          0.05000020	          0.05000014	          0.05000326	          0.05000120	          0.05000036	          0.38797090	          0.63972669	          0.05000006	          0.05000022	          0.05409806	          0.20141188	          0.05000072	          0.05000034	          0.05000035	          0.33271202	          0.44683028	          0.31530629	          0.27434921	          0.29139745	          0.38674292	          0.05000001	          0.05942194	          0.15833732	          0.05000008	          0.05000002	          0.05000007	          0.05000000	          0.05000000	          0.05000000	          0.05000042	          0.05000007	          0.05896138	          0.05000005	          0.05000006	          0.05000033	          0.05896171	          0.05896174	          0.21056908	          0.05000015	          0.05000037	          0.11122602	          0.16161634	          0.19280919	          0.16096311	          0.11193633	          0.05896183	          0.05002292	          0.05896760	          0.05896925	          0.06952940	          0.10185980	          0.05000004	          0.05000006	          0.17137755	          0.05000041	          0.05000012	          0.05000007	          0.09595638	          0.09836325	          0.08518259	          0.05831400	          0.05000104	          0.05896166	          0.05000002	          0.05000040	          0.05000070	          0.49201708	          0.37607211	          0.21743015	          0.27879226	          0.53823882	          0.27261254	          0.07217322	          0.11125220	          0.11401699	
          1.08615645	         -2.92518957	         -2.29771470	          5.61606362	          1.36024973	          0.85741240	         -0.00217550	        -18.00214364	         -1.92363100	          6.91693248	         31.08203355	          3.45050340	         -1.66243386	         -7.93194172	        -14.52622918	          0.70201923	          6.84868598	         10.55689518	         -3.56865043	          0.98637286	          0.04139547	         21.78337136	         -0.10711657	         -1.80925744	          0.77442992	         -2.00565383	          7.98523752	        -13.45980558	         17.93667105	         -9.27090535	        -13.50638595	          8.07433252	         35.33622960	         13.17535042	         86.51662706	         86.51662706	          0.27804204	          0.09668718	          0.06952956	          0.28266180	          0.18776430	          0.09668749	          0.05000176	          0.05000024	          0.05000036	          0.06471035	          0.09668938	          0.12115047	          0.06579097	          0.06450190	          0.05001117	          0.06952893	          0.27880538	          0.05824311	          0.05000116	          0.05000079	          0.05000060	          0.05000072	          0.32900257	          0.56899430	          0.05000020	          0.05891081	          0.05896172	          0.17079898	          0.05000147	          0.18696169	          0.16839122	          0.28214256	          0.37891580	          0.26896945	          0.24828920	          0.24710808	          0.32796167	          0.05000000	          0.05039037	          0.15917519	          0.05000005	          0.05000001	          0.05000005	          0.05000000	          0.06952961	          0.05000001	          0.06189027	          0.05725104	          0.05000004	          0.05896186	          0.05896163	          0.05000024	          0.05000004	          0.05000012	          0.17971603	          0.05000015	          0.05000065	          0.09432098	          0.13705211	          0.23840619	          0.17654390	          0.09867541	          0.05000017	          0.05000094	          0.05000515	          0.05000691	          0.05896161	          0.11705108	          0.05195435	          0.06596502	          0.51738205	          0.13444434	          0.08345824	          0.06952968	          0.18644505	          0.19038973	          0.16524793	          0.05000000	          0.05000000	          0.05000000	          0.05000008	          0.05896180	          0.05005646	          0.54390610	          0.33082784	          0.22702124	          0.43897092	          0.57381808	          0.24582667	          0.06120349	          0.09434280	          0.09668736	
          1.09691048	         -2.91670091	         -2.39142512	          5.88567195	          1.37654776	          0.85636056	         -0.00199083	        -17.79875079	         -2.21756784	          6.68082580	         30.37666600	          3.75949959	         -1.40054316	         -9.99499865	        -14.94610419	         -0.17861694	          6.22711074	         11.47194339	         -4.06947700	          0.92911343	         -0.03279909	         22.76113501	         -0.15289223	         -1.59982110	          1.00072644	         -2.06964842	          7.77719109	        -13.46663841	         18.08046495	        -10.31478274	        -13.50208188	          7.98532783	         36.42468990	         13.07513440	         86.51662706	         86.51662706	          0.35371737	          0.08199154	          0.05896166	          0.23969963	          0.15922571	          0.08199181	          0.05000080	          0.05000029	          0.05000029	          0.05487494	          0.08199348	          0.14313136	          0.12184313	          0.05896246	          0.05896196	          0.05896179	          0.23642944	          0.08684682	          0.05378570	          0.05000901	          0.05001894	          0.05896138	          0.27899697	          0.54238444	          0.05896156	          0.05000058	          0.05000007	          0.14483897	          0.09735780	          0.15854526	          0.14279740	          0.23925923	          0.32132375	          0.22808833	          0.21055134	          0.20954979	          0.27811429	          0.05000000	          0.05000013	          0.17905419	          0.05000003	          0.05000000	          0.05000004	          0.05646864	          0.05896169	          0.05000170	          0.26090393	          0.05000002	          0.29501196	          0.05000019	          0.05000006	          0.23246557	          0.07616697	          0.05000020	          0.16269018	          0.05000004	          0.05000017	          0.08201408	          0.23399395	          0.20217060	          0.14971226	          0.13321295	          0.05000019	          0.05896573	          0.12542521	          0.05000004	          0.05000004	          0.10000862	          0.05896163	          0.05593959	          0.43874429	          0.11400995	          0.15552629	          0.05896175	          0.15810698	          0.16145210	          0.14013164	          0.05983197	          0.05896334	          0.05896173	          0.05896168	          0.05000016	          0.05000017	          0.46123689	          0.34705608	          0.19251594	          0.37225107	          0.58226468	          0.20846307	          0.05190108	          0.10373488	          0.08199168	
          1.10766450	         -2.90584382	         -2.48437004	          6.12337458	          1.39299120	          0.85533020	         -0.00179581	        -17.50089856	         -2.50209269	          6.43935951	         29.54499586	          4.03014281	         -1.12837888	        -12.20509215	        -15.38684964	         -1.21043046	          5.77023137	         12.32877665	         -4.56387923	          0.86469202	         -0.02160101	         23.55041811	         -0.15948164	         -1.38370761	          1.23207902	         -2.12461780	          7.50248783	        -13.47691547	         18.16454374	        -11.34067268	        -13.50095393	          7.93818348	         37.47368818	         13.00904993	         86.51662706	         86.51662706	          0.30657970	          0.06952951	          0.05000004	          0.35359977	          0.13502476	          0.06952975	          0.05000112	          0.05000006	          0.05000005	          0.05000008	          0.06953139	          0.13155021	          0.10332404	          0.05000072	          0.05000045	          0.05000022	          0.25684298	          0.07364755	          0.05000020	          0.05000052	          0.05000032	          0.05000022	          0.23659182	          0.50530672	          0.05000004	          0.05000027	          0.05000016	          0.13445247	          0.08256036	          0.13444805	          0.12527900	          0.20289382	          0.27248521	          0.19342080	          0.17854930	          0.17770001	          0.23584326	          0.05000001	          0.09479329	          0.18377570	          0.05000006	          0.05000019	          0.05000008	          0.07577262	          0.05000000	          0.05000000	          0.31566724	          0.28768726	          0.36419342	          0.18010016	          0.21153812	          0.19713292	          0.06459025	          0.09201899	          0.13796264	          0.08199167	          0.05005851	          0.06954863	          0.19842882	          0.17144240	          0.12695733	          0.15193596	          0.05000014	          0.05000354	          0.10636174	          0.22059107	          0.16842951	          0.12839357	          0.05000003	          0.05000003	          0.37205883	          0.09668149	          0.13188768	          0.05000007	          0.13407610	          0.13956322	          0.11883290	          0.05073801	          0.05000141	          0.05000004	          0.05000000	          0.05896171	          0.05645531	          0.58690185	          0.42637357	          0.21964997	          0.63437808	          0.63784813	          0.33151232	          0.07733280	          0.09055013	          0.06952963	
